<?xml version="1.0" encoding="utf-8"?>
<!-- Generator: Adobe Illustrator 15.1.0, SVG Export Plug-In . SVG Version: 6.00 Build 0)  -->
<!DOCTYPE svg PUBLIC "-//W3C//DTD SVG 1.1//EN" "http://www.w3.org/Graphics/SVG/1.1/DTD/svg11.dtd">
<svg version="1.1" id="Layer_1" xmlns="http://www.w3.org/2000/svg" xmlns:xlink="http://www.w3.org/1999/xlink" x="0px" y="0px"
	 width="48px" height="48px" viewBox="0 0 48 48" enable-background="new 0 0 48 48" xml:space="preserve">
<g>
	<path fill="#404247" d="M24,2.123c-12.062,0-21.876,9.813-21.876,21.876c0,12.062,9.813,21.877,21.876,21.877
		c12.062,0,21.876-9.813,21.876-21.877C45.876,11.936,36.062,2.123,24,2.123z M24,42.071c-9.965,0-18.073-8.106-18.073-18.072
		S14.035,5.926,24,5.926c9.966,0,18.072,8.107,18.072,18.073S33.966,42.071,24,42.071z M24,11.314c2.732,0,4.938,2.205,4.938,4.938
		c0,2.733-2.205,4.937-4.938,4.937c-2.732,0-4.938-2.205-4.938-4.938S21.268,11.314,24,11.314z M24,34.686
		c-4.115,0-7.752-2.105-9.875-5.3c0.049-3.272,6.583-5.069,9.875-5.069c3.275,0,9.825,1.795,9.875,5.069
		C31.752,32.578,28.114,34.686,24,34.686z"/>
</g>
</svg>
