<?xml version="1.0" encoding="utf-8"?>
<!-- Generator: Adobe Illustrator 15.1.0, SVG Export Plug-In . SVG Version: 6.00 Build 0)  -->
<!DOCTYPE svg PUBLIC "-//W3C//DTD SVG 1.1//EN" "http://www.w3.org/Graphics/SVG/1.1/DTD/svg11.dtd">
<svg version="1.1" id="Layer_1" xmlns="http://www.w3.org/2000/svg" xmlns:xlink="http://www.w3.org/1999/xlink" x="0px" y="0px"
	 width="283.46px" height="283.46px" viewBox="0 0 283.46 283.46" enable-background="new 0 0 283.46 283.46" xml:space="preserve">
<g>
	<path fill="none" stroke="#26A7DF" stroke-width="5" stroke-miterlimit="10" d="M262.552,141.338
		c0-67.061-54.365-121.426-121.426-121.426C74.062,19.912,19.7,74.277,19.7,141.338c0,67.064,54.361,121.425,121.426,121.425
		C208.187,262.763,262.552,208.404,262.552,141.338z"/>
	<circle fill="none" stroke="#26A7DF" stroke-width="5" stroke-miterlimit="10" cx="122.607" cy="80.139" r="25.865"/>
	<circle fill="none" stroke="#26A7DF" stroke-width="5" stroke-miterlimit="10" cx="122.607" cy="202.541" r="25.865"/>
	<line fill="none" stroke="#26A7DF" stroke-width="5" stroke-miterlimit="10" x1="148.472" y1="80.139" x2="148.472" y2="202.541"/>
	
		<rect x="127.328" y="67.288" transform="matrix(-0.7071 0.7071 -0.7071 -0.7071 339.7834 80.6235)" fill="none" stroke="#26A7DF" stroke-width="5" stroke-linecap="round" stroke-linejoin="round" stroke-miterlimit="10" width="51.732" height="86.793"/>
	
		<rect x="127.276" y="128.697" transform="matrix(-0.7071 -0.7071 0.7071 -0.7071 139.7412 402.0682)" fill="none" stroke="#26A7DF" stroke-width="5" stroke-linecap="round" stroke-linejoin="round" stroke-miterlimit="10" width="51.73" height="86.791"/>
	<line fill="none" stroke="#26A7DF" stroke-width="5" stroke-miterlimit="10" x1="96.32" y1="202.199" x2="96.32" y2="79.799"/>
	<circle fill="none" stroke="#26A7DF" stroke-width="5" stroke-miterlimit="10" cx="183.807" cy="141.338" r="25.866"/>
</g>
</svg>
