<?xml version="1.0" encoding="utf-8"?>
<!-- Generator: Adobe Illustrator 15.1.0, SVG Export Plug-In . SVG Version: 6.00 Build 0)  -->
<!DOCTYPE svg PUBLIC "-//W3C//DTD SVG 1.1//EN" "http://www.w3.org/Graphics/SVG/1.1/DTD/svg11.dtd">
<svg version="1.1" id="Layer_1" xmlns="http://www.w3.org/2000/svg" xmlns:xlink="http://www.w3.org/1999/xlink" x="0px" y="0px"
	 width="48px" height="48px" viewBox="0 0 48 48" enable-background="new 0 0 48 48" xml:space="preserve">
<path fill="#FFFFFF" d="M30.417,7.5c-9.208,0-16.667,7.459-16.667,16.667s7.458,16.667,16.667,16.667s16.667-7.459,16.667-16.667
	S39.625,7.5,30.417,7.5z M30.417,36.668c-6.896,0-12.5-5.604-12.5-12.501c0-6.897,5.604-12.5,12.5-12.5
	c6.897,0,12.5,5.604,12.5,12.5C42.917,31.062,37.314,36.668,30.417,36.668z"/>
<path fill="#FFFFFF" d="M5.417,24.167c0-5.438,3.479-10.063,8.333-11.771V8.041c-7.188,1.855-12.5,8.354-12.5,16.126
	c0,7.772,5.312,14.271,12.5,16.125v-4.354C8.896,34.229,5.417,29.605,5.417,24.167z"/>
</svg>
