<?xml version="1.0" encoding="utf-8"?>
<!-- Generator: Adobe Illustrator 15.1.0, SVG Export Plug-In . SVG Version: 6.00 Build 0)  -->
<!DOCTYPE svg PUBLIC "-//W3C//DTD SVG 1.1//EN" "http://www.w3.org/Graphics/SVG/1.1/DTD/svg11.dtd">
<svg version="1.1" id="Layer_1" xmlns="http://www.w3.org/2000/svg" xmlns:xlink="http://www.w3.org/1999/xlink" x="0px" y="0px"
	 width="48px" height="48px" viewBox="0 0 48 48" enable-background="new 0 0 48 48" xml:space="preserve">
<path fill="#FFFFFF" d="M39,48h-6v-6h6c1.659,0,3-1.341,3-3V12H6v27c0,1.659,1.341,3,3,3h6v6H9c-4.971,0-9-4.032-9-9V9
	c0-4.971,4.029-9,9-9h30c4.971,0,9,4.029,9,9v30C48,43.968,43.971,48,39,48z M9,3C7.341,3,6,4.344,6,6s1.341,3,3,3s3-1.344,3-3
	S10.659,3,9,3z M21.879,24.876c0.585-0.585,1.353-0.879,2.121-0.879c0.768,0,1.536,0.294,2.121,0.879l6,6
	c0.855,0.858,1.113,2.147,0.65,3.272C32.311,35.268,31.212,36,30,36h-3v9c0,1.659-1.341,3-3,3c-1.656,0-3-1.341-3-3v-9h-3
	c-1.212,0-2.31-0.732-2.772-1.852c-0.462-1.121-0.207-2.414,0.651-3.272L21.879,24.876z"/>
</svg>
