<?xml version="1.0" encoding="utf-8"?>
<!-- Generator: Adobe Illustrator 15.1.0, SVG Export Plug-In . SVG Version: 6.00 Build 0)  -->
<!DOCTYPE svg PUBLIC "-//W3C//DTD SVG 1.1//EN" "http://www.w3.org/Graphics/SVG/1.1/DTD/svg11.dtd">
<svg version="1.1" id="Layer_1" xmlns="http://www.w3.org/2000/svg" xmlns:xlink="http://www.w3.org/1999/xlink" x="0px" y="0px"
	 width="48px" height="48px" viewBox="0 0 48 48" enable-background="new 0 0 48 48" xml:space="preserve">
<g>
	<path fill="#FFFFFF" d="M24,2.123c-12.062,0-21.876,9.813-21.876,21.876c0,12.062,9.813,21.877,21.876,21.877
		s21.876-9.814,21.876-21.877C45.876,11.936,36.062,2.123,24,2.123z M24,42.071c-9.965,0-18.073-8.106-18.073-18.072
		S14.035,5.926,24,5.926c9.966,0,18.072,8.107,18.072,18.073S33.966,42.071,24,42.071z M22.098,34.778h3.804V22.098h-3.804V34.778z
		 M22.098,17.023h3.804V13.22h-3.804V17.023z"/>
</g>
</svg>
