<?xml version="1.0" encoding="utf-8"?>
<!-- Generator: Adobe Illustrator 15.1.0, SVG Export Plug-In . SVG Version: 6.00 Build 0)  -->
<!DOCTYPE svg PUBLIC "-//W3C//DTD SVG 1.1//EN" "http://www.w3.org/Graphics/SVG/1.1/DTD/svg11.dtd">
<svg version="1.1" id="Layer_1" xmlns="http://www.w3.org/2000/svg" xmlns:xlink="http://www.w3.org/1999/xlink" x="0px" y="0px"
	 width="48px" height="48px" viewBox="0 0 48 48" enable-background="new 0 0 48 48" xml:space="preserve">
<g>
	<g>
		<g>
			<path fill="#FFFFFF" d="M24,47.846C10.853,47.846,0.156,37.148,0.156,24C0.156,10.852,10.853,0.156,24,0.156
				c13.147,0,23.843,10.696,23.843,23.844C47.844,37.148,37.147,47.846,24,47.846z M24,2.146C11.95,2.146,2.146,11.949,2.146,24
				c0,12.051,9.804,21.856,21.854,21.856c12.051,0,21.855-9.805,21.855-21.856C45.855,11.949,36.052,2.146,24,2.146z"/>
		</g>
	</g>
	<g>
		<g>
			<path fill="#FFFFFF" d="M20.516,18.346c-3.233,0-5.863-2.629-5.863-5.862s2.63-5.862,5.863-5.862c3.231,0,5.861,2.63,5.861,5.862
				S23.748,18.346,20.516,18.346z M20.516,8.611c-2.136,0-3.874,1.737-3.874,3.873s1.738,3.872,3.874,3.872
				c2.134,0,3.871-1.737,3.871-3.872S22.65,8.611,20.516,8.611z"/>
		</g>
	</g>
	<g>
		<g>
			<path fill="#FFFFFF" d="M20.516,41.379c-3.233,0-5.863-2.629-5.863-5.861c0-3.233,2.63-5.863,5.863-5.863
				c3.231,0,5.861,2.63,5.861,5.863C26.377,38.75,23.748,41.379,20.516,41.379z M20.516,31.645c-2.136,0-3.874,1.737-3.874,3.873
				c0,2.135,1.738,3.871,3.874,3.871c2.134,0,3.871-1.736,3.871-3.871C24.387,33.382,22.65,31.645,20.516,31.645z"/>
		</g>
	</g>
	<g>
		<g>
			<rect x="24.387" y="11.734" fill="#FFFFFF" width="1.99" height="24.534"/>
		</g>
	</g>
	<g>
		<g>
			<path fill="#FFFFFF" d="M28.605,28.443c-0.27,0-0.53-0.11-0.715-0.304L16.352,16.603c-0.188-0.188-0.292-0.438-0.292-0.704
				s0.104-0.516,0.292-0.704l0.876,0.876l0.312-0.312c-0.023-0.082-0.067-0.157-0.128-0.218l0.173,0.173l0.347-0.347l11.204,11.203
				l-0.347,0.347l0.16,0.159c-0.055-0.052-0.127-0.092-0.205-0.114l-0.32,0.32l0.895,0.856
				C29.134,28.333,28.874,28.443,28.605,28.443z M36.203,21.257l-0.896-0.858l-0.306,0.305c0.023,0.082,0.068,0.156,0.13,0.218
				l-0.174-0.173l-0.346,0.346L23.409,9.892l0.346-0.346l-0.173-0.173c0.063,0.063,0.138,0.106,0.216,0.13l0.313-0.313l-0.874-0.878
				c0.387-0.385,1.017-0.385,1.403,0l11.552,11.551c0.185,0.184,0.29,0.44,0.29,0.703C36.482,20.823,36.384,21.07,36.203,21.257z"/>
		</g>
	</g>
	<g>
		<g>
			<path fill="#FFFFFF" d="M23.927,39.998c-0.263,0-0.51-0.101-0.698-0.284l0.868-0.886l-0.31-0.311
				c-0.081,0.024-0.155,0.068-0.217,0.13l0.173-0.174l-0.346-0.346l11.204-11.203l0.347,0.347l0.173-0.173
				c-0.062,0.063-0.105,0.139-0.129,0.217l0.306,0.306l0.895-0.859c0.377,0.393,0.375,1.004-0.005,1.392L24.631,39.708
				C24.446,39.893,24.19,39.998,23.927,39.998z M16.335,32.82c-0.381-0.39-0.379-1.019,0.005-1.403L27.89,19.868
				c0.387-0.388,1.02-0.388,1.406,0l-0.877,0.877l0.312,0.312c0.082-0.023,0.158-0.067,0.219-0.128l-0.174,0.174l0.346,0.346
				L17.92,32.651l-0.346-0.347l-0.173,0.173c0.062-0.062,0.105-0.138,0.128-0.217l-0.308-0.309L16.335,32.82z"/>
		</g>
	</g>
	<g>
		<g>
			<rect x="14.574" y="11.671" fill="#FFFFFF" width="1.99" height="24.532"/>
		</g>
	</g>
	<g>
		<g>
			<path fill="#FFFFFF" d="M32.031,29.863c-3.232,0-5.861-2.631-5.861-5.864c0-3.232,2.629-5.861,5.861-5.861
				c3.233,0,5.863,2.629,5.863,5.861C37.895,27.232,35.265,29.863,32.031,29.863z M32.031,20.128c-2.135,0-3.871,1.737-3.871,3.872
				c0,2.136,1.736,3.874,3.871,3.874c2.136,0,3.873-1.737,3.873-3.874C35.904,21.865,34.167,20.128,32.031,20.128z"/>
		</g>
	</g>
</g>
</svg>
