<?xml version="1.0" encoding="utf-8"?>
<!-- Generator: Adobe Illustrator 15.1.0, SVG Export Plug-In . SVG Version: 6.00 Build 0)  -->
<!DOCTYPE svg PUBLIC "-//W3C//DTD SVG 1.1//EN" "http://www.w3.org/Graphics/SVG/1.1/DTD/svg11.dtd">
<svg version="1.1" id="Layer_1" xmlns="http://www.w3.org/2000/svg" xmlns:xlink="http://www.w3.org/1999/xlink" x="0px" y="0px"
	 width="283.46px" height="283.46px" viewBox="0 0 283.46 283.46" enable-background="new 0 0 283.46 283.46" xml:space="preserve">
<path opacity="0.25" fill="none" stroke="#53B7DB" stroke-width="2.5" stroke-miterlimit="10" d="M58.207,177.084
	c19.709,0,35.742-16.035,35.742-35.746c0-19.709-16.033-35.742-35.742-35.742s-35.742,16.033-35.742,35.742
	C22.464,161.049,38.498,177.084,58.207,177.084z M55.708,94.926c7.932,0,14.385-6.453,14.385-14.385
	c0-7.93-6.453-14.383-14.385-14.383s-14.383,6.453-14.383,14.383C41.326,88.473,47.777,94.926,55.708,94.926z M78.611,72.159
	c7.932,0,14.383-6.453,14.383-14.385c0-7.93-6.451-14.383-14.383-14.383s-14.385,6.453-14.385,14.383
	C64.226,65.706,70.679,72.159,78.611,72.159z M126.435,23.184c-7.932,0-14.383,6.453-14.383,14.383
	c0,7.932,6.451,14.385,14.383,14.385s14.385-6.453,14.385-14.385C140.82,29.637,134.367,23.184,126.435,23.184z M155.265,65.963
	c7.932,0,14.387-6.453,14.387-14.385s-6.455-14.385-14.387-14.385c-7.93,0-14.383,6.453-14.383,14.385
	S147.335,65.963,155.265,65.963z M233.72,116.983c0-7.932-6.453-14.385-14.385-14.385s-14.385,6.453-14.385,14.385
	s6.453,14.385,14.385,14.385S233.72,124.915,233.72,116.983z M256.796,141.338c0-7.932-6.453-14.385-14.383-14.385
	c-7.934,0-14.387,6.453-14.387,14.385s6.453,14.387,14.387,14.387C250.343,155.725,256.796,149.27,256.796,141.338z M168.119,73.459
	c0,16.809,13.674,30.482,30.48,30.482s30.482-13.674,30.482-30.482c0-16.807-13.676-30.48-30.482-30.48
	S168.119,56.653,168.119,73.459z M198.599,178.737c-16.807,0-30.48,13.674-30.48,30.48s13.674,30.48,30.48,30.48
	s30.482-13.674,30.482-30.48S215.406,178.737,198.599,178.737z M81.339,88.62c0-2.873-2.338-5.211-5.211-5.211
	c-2.875,0-5.211,2.338-5.211,5.211s2.336,5.209,5.211,5.209C79.001,93.829,81.339,91.493,81.339,88.62z M85.123,84.047
	c2.873,0,5.211-2.338,5.211-5.211s-2.338-5.211-5.211-5.211s-5.211,2.338-5.211,5.211S82.25,84.047,85.123,84.047z M101.996,52.344
	c2.873,0,5.209-2.338,5.209-5.211s-2.336-5.211-5.209-5.211c-2.875,0-5.211,2.338-5.211,5.211S99.121,52.344,101.996,52.344z
	 M91.89,44.44c2.873,0,5.211-2.336,5.211-5.211c0-2.873-2.338-5.209-5.211-5.209s-5.211,2.336-5.211,5.209
	C86.679,42.104,89.017,44.44,91.89,44.44z M104.218,28.901c-2.873,0-5.211,2.336-5.211,5.209c0,2.875,2.338,5.211,5.211,5.211
	s5.211-2.336,5.211-5.211C109.429,31.237,107.091,28.901,104.218,28.901z M146.587,32.854c2.873,0,5.211-2.336,5.211-5.211
	c0-2.873-2.338-5.209-5.211-5.209s-5.211,2.336-5.211,5.209C141.376,30.518,143.714,32.854,146.587,32.854z M159.386,34.231
	c2.873,0,5.211-2.336,5.211-5.209c0-2.875-2.338-5.211-5.211-5.211c-2.875,0-5.213,2.336-5.213,5.211
	C154.173,31.895,156.511,34.231,159.386,34.231z M172.117,37.331c2.873,0,5.211-2.338,5.211-5.211s-2.338-5.211-5.211-5.211
	c-2.875,0-5.213,2.338-5.213,5.211S169.242,37.331,172.117,37.331z M184.509,41.708c2.873,0,5.211-2.336,5.211-5.209
	s-2.338-5.211-5.211-5.211s-5.211,2.338-5.211,5.211S181.636,41.708,184.509,41.708z M224.564,95.594
	c0,2.873,2.338,5.211,5.211,5.211s5.211-2.338,5.211-5.211s-2.338-5.211-5.211-5.211S224.564,92.721,224.564,95.594z
	 M235.492,88.743c2.875,0,5.213-2.338,5.213-5.211s-2.338-5.209-5.213-5.209c-2.873,0-5.211,2.336-5.211,5.209
	S232.619,88.743,235.492,88.743z M244.48,98.918c2.873,0,5.211-2.336,5.211-5.209c0-2.875-2.338-5.211-5.211-5.211
	c-2.875,0-5.211,2.336-5.211,5.211C239.269,96.583,241.605,98.918,244.48,98.918z M238.998,100.176
	c-2.873,0-5.211,2.336-5.211,5.209s2.338,5.211,5.211,5.211s5.211-2.338,5.211-5.211S241.871,100.176,238.998,100.176z
	 M236.32,119.141c0,2.875,2.338,5.213,5.213,5.213c2.873,0,5.211-2.338,5.211-5.213c0-2.873-2.338-5.209-5.211-5.209
	C238.658,113.932,236.32,116.268,236.32,119.141z M245.779,110.471c0,2.875,2.338,5.211,5.211,5.211
	c2.875,0,5.213-2.336,5.213-5.211c0-2.873-2.338-5.209-5.213-5.209C248.117,105.262,245.779,107.598,245.779,110.471z
	 M212.232,141.338c0,2.873,2.338,5.211,5.211,5.211s5.211-2.338,5.211-5.211s-2.338-5.209-5.211-5.209
	S212.232,138.465,212.232,141.338z M80.71,106.133c2.873,0,5.209-2.336,5.209-5.209s-2.336-5.211-5.209-5.211
	c-2.875,0-5.211,2.338-5.211,5.211S77.835,106.133,80.71,106.133z M89.152,116.014c2.873,0,5.211-2.338,5.211-5.211
	s-2.338-5.211-5.211-5.211s-5.209,2.338-5.209,5.211S86.279,116.014,89.152,116.014z M89.152,85.924
	c-2.873,0-5.209,2.336-5.209,5.209s2.336,5.211,5.209,5.211s5.211-2.338,5.211-5.211S92.025,85.924,89.152,85.924z M67.912,93.961
	c-2.873,0-5.211,2.338-5.211,5.211s2.338,5.211,5.211,5.211s5.211-2.338,5.211-5.211S70.785,93.961,67.912,93.961z M32.412,111.551
	c2.873,0,5.211-2.336,5.211-5.209s-2.338-5.211-5.211-5.211s-5.211,2.338-5.211,5.211S29.539,111.551,32.412,111.551z
	 M37.734,99.848c2.873,0,5.209-2.338,5.209-5.211s-2.336-5.211-5.209-5.211c-2.875,0-5.211,2.338-5.211,5.211
	S34.859,99.848,37.734,99.848z M70.093,202.477c0-7.932-6.453-14.387-14.385-14.387s-14.383,6.455-14.383,14.387
	s6.451,14.387,14.383,14.387S70.093,210.409,70.093,202.477z M92.994,225.245c0-7.932-6.451-14.387-14.383-14.387
	s-14.385,6.455-14.385,14.387s6.453,14.387,14.385,14.387S92.994,233.176,92.994,225.245z M126.437,231.067
	c-7.932,0-14.385,6.455-14.385,14.387c0,7.93,6.453,14.385,14.385,14.385s14.383-6.455,14.383-14.385
	C140.82,237.522,134.369,231.067,126.437,231.067z M155.265,217.057c-7.93,0-14.383,6.453-14.383,14.383
	c0,7.934,6.453,14.387,14.383,14.387c7.932,0,14.387-6.453,14.387-14.387C169.652,223.51,163.197,217.057,155.265,217.057z
	 M219.335,180.42c7.932,0,14.385-6.453,14.385-14.383c0-7.932-6.453-14.387-14.385-14.387s-14.385,6.455-14.385,14.387
	C204.951,173.967,211.404,180.42,219.335,180.42z M76.13,199.612c2.873,0,5.209-2.338,5.209-5.211s-2.336-5.213-5.209-5.213
	c-2.875,0-5.211,2.34-5.211,5.213S73.255,199.612,76.13,199.612z M85.123,209.393c2.873,0,5.211-2.338,5.211-5.209
	c0-2.873-2.338-5.213-5.211-5.213s-5.211,2.34-5.211,5.213C79.912,207.055,82.25,209.393,85.123,209.393z M107.205,235.887
	c0-2.873-2.336-5.213-5.209-5.213c-2.875,0-5.211,2.34-5.211,5.213s2.336,5.211,5.211,5.211
	C104.869,241.098,107.205,238.76,107.205,235.887z M91.89,238.579c-2.873,0-5.211,2.338-5.211,5.211s2.338,5.213,5.211,5.213
	s5.211-2.34,5.211-5.213S94.763,238.579,91.89,238.579z M104.218,243.696c-2.873,0-5.211,2.34-5.211,5.215
	c0,2.873,2.338,5.211,5.211,5.211s5.211-2.338,5.211-5.211C109.429,246.036,107.091,243.696,104.218,243.696z M146.587,250.163
	c-2.873,0-5.211,2.34-5.211,5.215c0,2.873,2.338,5.211,5.211,5.211s5.211-2.338,5.211-5.211
	C151.798,252.502,149.46,250.163,146.587,250.163z M159.386,248.788c-2.875,0-5.213,2.34-5.213,5.213
	c0,2.871,2.338,5.209,5.213,5.209c2.873,0,5.211-2.338,5.211-5.209C164.597,251.127,162.259,248.788,159.386,248.788z
	 M172.117,245.69c-2.875,0-5.213,2.336-5.213,5.211c0,2.873,2.338,5.211,5.213,5.211c2.873,0,5.211-2.338,5.211-5.211
	C177.328,248.026,174.99,245.69,172.117,245.69z M184.509,241.313c-2.873,0-5.211,2.338-5.211,5.209
	c0,2.873,2.338,5.213,5.211,5.213s5.213-2.34,5.213-5.213C189.722,243.651,187.382,241.313,184.509,241.313z M234.986,187.426
	c0-2.873-2.338-5.211-5.211-5.211s-5.211,2.338-5.211,5.211s2.338,5.211,5.211,5.211S234.986,190.299,234.986,187.426z
	 M235.492,194.276c-2.873,0-5.211,2.338-5.211,5.211s2.338,5.213,5.211,5.213c2.875,0,5.213-2.34,5.213-5.213
	S238.367,194.276,235.492,194.276z M244.48,184.1c-2.875,0-5.211,2.338-5.211,5.211s2.336,5.213,5.211,5.213
	c2.873,0,5.211-2.34,5.211-5.213S247.353,184.1,244.48,184.1z M233.787,177.635c0,2.873,2.338,5.211,5.211,5.211
	s5.211-2.338,5.211-5.211s-2.338-5.213-5.211-5.213S233.787,174.762,233.787,177.635z M246.744,163.877
	c0-2.873-2.338-5.211-5.211-5.211c-2.875,0-5.213,2.338-5.213,5.211s2.338,5.211,5.213,5.211
	C244.406,169.088,246.744,166.75,246.744,163.877z M250.99,167.336c-2.873,0-5.211,2.338-5.211,5.213
	c0,2.873,2.338,5.211,5.211,5.211c2.875,0,5.213-2.338,5.213-5.211C256.203,169.674,253.865,167.336,250.99,167.336z M80.71,187.307
	c2.873,0,5.209-2.338,5.209-5.211s-2.336-5.211-5.209-5.211c-2.875,0-5.211,2.338-5.211,5.211S77.835,187.307,80.71,187.307z
	 M89.152,167.004c-2.873,0-5.209,2.34-5.209,5.213s2.336,5.209,5.209,5.209s5.211-2.336,5.211-5.209S92.025,167.004,89.152,167.004z
	 M94.363,191.885c0-2.873-2.338-5.211-5.211-5.211s-5.209,2.338-5.209,5.211s2.336,5.211,5.209,5.211S94.363,194.758,94.363,191.885
	z M67.912,178.637c-2.873,0-5.211,2.336-5.211,5.211c0,2.873,2.338,5.211,5.211,5.211s5.211-2.338,5.211-5.211
	C73.123,180.973,70.785,178.637,67.912,178.637z M37.625,176.678c0-2.875-2.338-5.211-5.211-5.211c-2.875,0-5.213,2.336-5.213,5.211
	c0,2.873,2.338,5.211,5.213,5.211C35.287,181.889,37.625,179.551,37.625,176.678z M42.945,188.383c0-2.873-2.336-5.211-5.209-5.211
	c-2.875,0-5.213,2.338-5.213,5.211s2.338,5.211,5.213,5.211C40.609,193.594,42.945,191.256,42.945,188.383z"/>
<g>
	<path fill="none" stroke="#26A7DF" stroke-width="2.5" stroke-miterlimit="10" d="M262.552,141.338
		c0-67.061-54.365-121.426-121.426-121.426c-67.064,0-121.426,54.365-121.426,121.426c0,67.064,54.361,121.426,121.426,121.426
		C208.187,262.764,262.552,208.403,262.552,141.338z"/>
	<circle fill="none" stroke="#26A7DF" stroke-width="2.5" stroke-miterlimit="10" cx="122.607" cy="80.139" r="25.865"/>
	<circle fill="none" stroke="#26A7DF" stroke-width="2.5" stroke-miterlimit="10" cx="122.607" cy="202.54" r="25.865"/>
	
		<line fill="none" stroke="#26A7DF" stroke-width="2.5" stroke-miterlimit="10" x1="148.472" y1="80.139" x2="148.472" y2="202.54"/>
	
		<rect x="127.33" y="67.287" transform="matrix(0.7071 -0.7071 0.7071 0.7071 -33.3954 140.7444)" fill="none" stroke="#26A7DF" stroke-width="2.5" stroke-linecap="round" stroke-linejoin="round" stroke-miterlimit="10" width="51.732" height="86.793"/>
	
		<rect x="127.269" y="128.699" transform="matrix(0.7071 0.7071 -0.7071 0.7071 166.5478 -57.8764)" fill="none" stroke="#26A7DF" stroke-width="2.5" stroke-linecap="round" stroke-linejoin="round" stroke-miterlimit="10" width="51.731" height="86.792"/>
	<line fill="none" stroke="#26A7DF" stroke-width="2.5" stroke-miterlimit="10" x1="96.32" y1="202.198" x2="96.32" y2="79.799"/>
	<circle fill="none" stroke="#26A7DF" stroke-width="2.5" stroke-miterlimit="10" cx="183.807" cy="141.338" r="25.866"/>
</g>
</svg>
