<?xml version="1.0" encoding="utf-8"?>
<!-- Generator: Adobe Illustrator 15.1.0, SVG Export Plug-In . SVG Version: 6.00 Build 0)  -->
<!DOCTYPE svg PUBLIC "-//W3C//DTD SVG 1.1//EN" "http://www.w3.org/Graphics/SVG/1.1/DTD/svg11.dtd">
<svg version="1.1" id="Layer_1" xmlns="http://www.w3.org/2000/svg" xmlns:xlink="http://www.w3.org/1999/xlink" x="0px" y="0px"
	 width="48px" height="48px" viewBox="0 0 48 48" enable-background="new 0 0 48 48" xml:space="preserve">
<g>
	<path fill="#FFFFFF" d="M13.569,38.095l0.233,0.167c2.174,1.559,4.64,2.575,7.329,3.021l0.288,0.048l-0.027,0.292
		c-0.007,0.068-0.023,0.132-0.042,0.194l-0.018,3.053c0,1.472,1.197,2.668,2.668,2.668c1.472,0,2.669-1.196,2.669-2.668v-2.982
		c-0.037-0.133-0.055-0.196-0.061-0.265l-0.026-0.292l0.287-0.048c2.685-0.443,5.15-1.46,7.328-3.021l0.235-0.167l0.186,0.219
		c0.05,0.058,0.081,0.115,0.106,0.161l2.144,2.166c1.009,1.011,2.765,1.011,3.774,0c0.505-0.504,0.783-1.174,0.783-1.886
		s-0.277-1.383-0.783-1.887l-2.107-2.106c-0.112-0.065-0.168-0.098-0.22-0.142l-0.219-0.188l0.168-0.233
		c1.561-2.185,2.576-4.649,3.019-7.33l0.05-0.298l0.299,0.038c0.062,0.009,0.119,0.023,0.175,0.039
		c0.033,0.01,0.065,0.02,0.082,0.02h2.98c1.471,0,2.667-1.196,2.667-2.668c0-1.471-1.196-2.668-2.667-2.668h-2.98
		c-0.135,0.036-0.199,0.053-0.27,0.06l-0.289,0.025l-0.047-0.286c-0.442-2.679-1.458-5.145-3.019-7.329l-0.172-0.239l0.229-0.186
		c0.049-0.04,0.102-0.07,0.153-0.1l2.168-2.145c0.506-0.504,0.783-1.174,0.783-1.886c0-0.712-0.277-1.382-0.783-1.887
		c-1.009-1.008-2.765-1.009-3.774,0l-2.107,2.105c-0.067,0.115-0.1,0.169-0.14,0.218l-0.187,0.225l-0.237-0.17
		c-2.171-1.561-4.637-2.576-7.328-3.02l-0.287-0.047l0.026-0.291c0.006-0.069,0.023-0.132,0.043-0.195l0.018-3.051
		c0-1.472-1.197-2.669-2.669-2.669c-1.471,0-2.668,1.197-2.668,2.669v2.981c0.036,0.133,0.053,0.197,0.06,0.265l0.027,0.291
		L21.13,6.717c-2.688,0.443-5.155,1.459-7.328,3.02l-0.236,0.169l-0.188-0.223c-0.042-0.05-0.073-0.104-0.104-0.159l-2.143-2.167
		c-1.008-1.009-2.766-1.009-3.775,0c-1.037,1.04-1.037,2.733,0,3.772l2.109,2.109c0.115,0.07,0.164,0.098,0.211,0.136l0.233,0.186
		l-0.174,0.242c-1.562,2.178-2.578,4.644-3.02,7.329l-0.047,0.286L6.38,21.391c-0.08-0.007-0.145-0.026-0.198-0.042l-3.051-0.017
		c-1.471,0-2.668,1.197-2.668,2.668c0,1.472,1.197,2.668,2.668,2.668h2.981c0.015,0,0.047-0.01,0.079-0.018
		c0.056-0.018,0.113-0.032,0.176-0.041l0.3-0.038l0.049,0.298c0.441,2.677,1.457,5.144,3.02,7.33l0.172,0.24l-0.23,0.186
		c-0.046,0.037-0.097,0.066-0.148,0.097l-2.174,2.146c-1.038,1.04-1.038,2.732,0,3.772c1.01,1.011,2.767,1.011,3.775,0l2.106-2.105
		c0.061-0.105,0.093-0.164,0.144-0.223L13.569,38.095z M24,37.433c-7.406,0-13.432-6.025-13.432-13.433
		c0-7.406,6.025-13.431,13.432-13.431c7.407,0,13.433,6.025,13.433,13.431C37.433,31.407,31.407,37.433,24,37.433z"/>
</g>
</svg>
