<?xml version="1.0" encoding="utf-8"?>
<!-- Generator: Adobe Illustrator 15.1.0, SVG Export Plug-In . SVG Version: 6.00 Build 0)  -->
<!DOCTYPE svg PUBLIC "-//W3C//DTD SVG 1.1//EN" "http://www.w3.org/Graphics/SVG/1.1/DTD/svg11.dtd">
<svg version="1.1" id="Layer_1" xmlns="http://www.w3.org/2000/svg" xmlns:xlink="http://www.w3.org/1999/xlink" x="0px" y="0px"
	 width="48px" height="48px" viewBox="0 0 48 48" enable-background="new 0 0 48 48" xml:space="preserve">
<g>
	<path fill="#FFFFFF" d="M15.387,37.277c-2.338,0-4.23,1.914-4.23,4.254c0,2.336,1.894,4.25,4.23,4.25
		c2.337,0,4.251-1.914,4.251-4.25C19.638,39.191,17.724,37.277,15.387,37.277z"/>
	<path fill="#FFFFFF" d="M36.646,37.609c-2.149,0-3.899,1.758-3.899,3.922c0,2.16,1.75,3.92,3.899,3.92c2.162,0,3.92-1.76,3.92-3.92
		C40.566,39.367,38.809,37.609,36.646,37.609z M2.962,7.185h4.13l7.814,16.477l-2.951,5.357c-0.322,0.564-0.49,1.211-0.49,1.881
		c0,2.16,1.759,3.921,3.921,3.921h25.181V31.23H16.28c-0.468,0-0.863-0.395-0.863-0.86l0.105-0.416l2.007-3.635h16.031
		c1.435,0,2.748-0.773,3.433-2.02l8.046-14.614l-3.134-1.729l-8.148,14.771H18.43l-0.365-0.762L9.371,3.594H2.962V7.185z"/>
</g>
</svg>
