<?xml version="1.0" encoding="utf-8"?>
<!-- Generator: Adobe Illustrator 15.1.0, SVG Export Plug-In . SVG Version: 6.00 Build 0)  -->
<!DOCTYPE svg PUBLIC "-//W3C//DTD SVG 1.1//EN" "http://www.w3.org/Graphics/SVG/1.1/DTD/svg11.dtd">
<svg version="1.1" id="Layer_1" xmlns="http://www.w3.org/2000/svg" xmlns:xlink="http://www.w3.org/1999/xlink" x="0px" y="0px"
	 width="48px" height="48px" viewBox="0 0 48 48" enable-background="new 0 0 48 48" xml:space="preserve">
<path fill="#404247" d="M36.558,13.763c-2.739,0-5.327,1.065-7.173,2.911L24,21.45L21.108,24h0.02l-5.12,4.547
	c-1.217,1.219-2.834,1.884-4.566,1.884c-3.557,0-6.45-2.872-6.45-6.431s2.893-6.431,6.45-6.431c1.732,0,3.35,0.665,4.643,1.959
	l2.15,1.903l2.874-2.55L18.71,16.77c-1.94-1.941-4.528-3.006-7.269-3.006c-5.67,0-10.274,4.604-10.274,10.237
	c0,5.632,4.604,10.236,10.274,10.236c2.74,0,5.329-1.064,7.174-2.912L24,26.568l0.019,0.02L26.892,24h-0.019l5.119-4.547
	c1.217-1.219,2.834-1.884,4.565-1.884c3.558,0,6.451,2.873,6.451,6.431s-2.894,6.431-6.451,6.431c-1.712,0-3.349-0.665-4.642-1.96
	l-2.171-1.922l-2.872,2.55l2.417,2.132c1.94,1.922,4.51,2.987,7.268,2.987c5.671,0,10.275-4.586,10.275-10.237
	C46.833,18.33,42.229,13.763,36.558,13.763z"/>
<path fill="none" d="M1.167,1.167h45.666v45.666H1.167V1.167z"/>
</svg>
